<svg width="40" height="39" viewBox="0 0 40 39" fill="none" xmlns="http://www.w3.org/2000/svg">
<path d="M1.45036 29.3409C1.03666 30.0156 0.572047 30.7984 0.177441 31.4221C0.00765446 31.7091 -0.0427907 32.0511 0.036948 32.3749C0.116687 32.6986 0.320244 32.9781 0.60387 33.1533L8.87785 38.245C9.02163 38.3338 9.18164 38.393 9.34856 38.4193C9.51548 38.4456 9.68596 38.4384 9.85006 38.3981C10.0142 38.3578 10.1686 38.2853 10.3044 38.1847C10.4401 38.0841 10.5545 37.9575 10.6409 37.8122C10.9718 37.2585 11.3982 36.5393 11.8629 35.7692C15.1406 30.3592 18.4375 31.0212 24.382 33.8598L32.586 37.7613C32.7398 37.8345 32.9067 37.8761 33.0769 37.8836C33.247 37.8911 33.417 37.8644 33.5766 37.8051C33.7363 37.7457 33.8824 37.6549 34.0063 37.5381C34.1302 37.4212 34.2295 37.2807 34.2981 37.1248L38.2378 28.2144C38.3716 27.9085 38.3798 27.5623 38.2608 27.2504C38.1417 26.9385 37.9049 26.6858 37.6013 26.5469C35.8701 25.7322 32.4269 24.1092 29.3273 22.6135C18.1765 17.1972 8.69965 17.5473 1.45036 29.3409Z" fill="white"/>
<path d="M38.5497 9.12122C38.9634 8.44658 39.428 7.66373 39.8226 7.04C39.9924 6.75308 40.0429 6.411 39.9631 6.08729C39.8834 5.76357 39.6798 5.48406 39.3962 5.30883L31.1222 0.217144C30.9774 0.119582 30.814 0.05287 30.6422 0.0211593C30.4705 -0.0105514 30.2941 -0.00658268 30.1239 0.0328184C29.9538 0.0722195 29.7936 0.14621 29.6533 0.250187C29.5129 0.354164 29.3955 0.485903 29.3083 0.637207C28.9773 1.19093 28.5509 1.91013 28.0863 2.68025C24.8085 8.09016 21.5117 7.42824 15.5671 4.58963L7.3886 0.707218C7.23481 0.634018 7.06789 0.592426 6.89773 0.584906C6.72757 0.577387 6.55763 0.604093 6.39798 0.663442C6.23834 0.722791 6.09222 0.813577 5.96829 0.930421C5.84437 1.04727 5.74515 1.18779 5.67652 1.34368L1.73683 10.2541C1.60304 10.56 1.59479 10.9062 1.71384 11.2181C1.83289 11.53 2.06972 11.7827 2.37329 11.9216C4.10446 12.7363 7.54771 14.3593 10.6473 15.855C21.8235 21.2649 31.3004 20.9021 38.5497 9.12122Z" fill="white"/>
</svg>
