<svg width="106" height="33" viewBox="0 0 106 33" fill="none" xmlns="http://www.w3.org/2000/svg">
<g clip-path="url(#clip0_1_9043)">
<path d="M11.48 5.97461V14.4496H3.694V5.97461H0V26.2056H3.695V18.0056H11.479V26.2056H15.175V5.97461H11.48ZM27.002 19.6666C27.002 20.4775 26.6799 21.2552 26.1065 21.8286C25.5331 22.402 24.7554 22.7241 23.9445 22.7241C23.1336 22.7241 22.3559 22.402 21.7825 21.8286C21.2091 21.2552 20.887 20.4775 20.887 19.6666V11.0006H17.382V19.6666C17.382 21.4054 18.0727 23.0729 19.3022 24.3024C20.5317 25.5319 22.1992 26.2226 23.938 26.2226C25.6768 26.2226 27.3443 25.5319 28.5738 24.3024C29.8033 23.0729 30.494 21.4054 30.494 19.6666V11.0006H27.002V19.6666ZM52.973 11.8936C52.973 10.1166 54.148 9.55361 55.435 9.55361C56.473 9.55361 57.843 10.3436 58.74 11.3016L61.035 8.59561C59.889 7.04561 57.565 5.97461 55.662 5.97461C51.859 5.97461 49.109 8.20161 49.109 11.8936C49.109 18.7436 57.481 16.5696 57.481 20.4036C57.481 21.5856 56.333 22.6296 55.019 22.6296C52.946 22.6296 52.274 21.6166 51.322 20.5446L48.774 23.1936C50.404 25.1936 52.414 26.2096 54.821 26.2096C58.434 26.2096 61.34 23.9556 61.34 20.4316C61.34 12.8276 52.967 15.1906 52.967 11.8936M104.767 22.9736C102.696 22.9736 102.107 22.0776 102.107 20.7056V14.6306H105.327V11.5526H102.107V7.49161L98.553 9.08661V21.4606C98.553 24.6256 100.737 26.2206 103.731 26.2206C104.201 26.2286 104.671 26.1906 105.133 26.1086L106 22.9166C105.609 22.9436 105.16 22.9706 104.767 22.9706M40.344 11.1016C38.608 11.1016 37.396 11.6056 36.224 12.7546V6.09561H32.714V18.4386C32.714 23.0586 36.054 26.2246 39.808 26.2246C43.972 26.2246 47.635 23.0026 47.635 18.6646C47.635 14.3806 44.264 11.1046 40.344 11.1046M40.322 22.6916C39.7989 22.6916 39.2809 22.5886 38.7976 22.3884C38.3143 22.1882 37.8751 21.8948 37.5052 21.5249C37.1353 21.155 36.8419 20.7158 36.6417 20.2325C36.4415 19.7492 36.3385 19.2312 36.3385 18.7081C36.3385 18.185 36.4415 17.667 36.6417 17.1837C36.8419 16.7004 37.1353 16.2613 37.5052 15.8913C37.8751 15.5214 38.3143 15.228 38.7976 15.0278C39.2809 14.8276 39.7989 14.7246 40.322 14.7246C41.3785 14.7246 42.3917 15.1443 43.1388 15.8913C43.8858 16.6384 44.3055 17.6516 44.3055 18.7081C44.3055 19.7646 43.8858 20.7778 43.1388 21.5249C42.3917 22.2719 41.3785 22.6916 40.322 22.6916ZM78.464 18.4806C78.464 14.1346 74.809 10.9206 70.637 10.9206C66.884 10.9206 63.543 14.0856 63.543 18.7066V31.0566H67.053V24.3886C68.223 25.5356 69.437 26.0416 71.171 26.0416C75.091 26.0416 78.464 22.7656 78.464 18.4806ZM75.14 18.4366C75.14 19.4931 74.7203 20.5063 73.9733 21.2534C73.2262 22.0004 72.213 22.4201 71.1565 22.4201C70.1 22.4201 69.0868 22.0004 68.3397 21.2534C67.5927 20.5063 67.173 19.4931 67.173 18.4366C67.173 17.3801 67.5927 16.3669 68.3397 15.6198C69.0868 14.8728 70.1 14.4531 71.1565 14.4531C72.213 14.4531 73.2262 14.8728 73.9733 15.6198C74.7203 16.3669 75.14 17.3801 75.14 18.4366Z" fill="white"/>
<path d="M89.806 10.75V7.22305C90.2721 7.00522 90.6667 6.65949 90.9439 6.22611C91.2212 5.79272 91.3696 5.28951 91.372 4.77505V4.69405C91.372 3.19405 90.156 1.97805 88.656 1.97805H88.575C87.8547 1.97805 87.1638 2.26419 86.6545 2.77354C86.1451 3.28289 85.859 3.97372 85.859 4.69405V4.77505C85.8614 5.28951 86.0098 5.79272 86.287 6.22611C86.5643 6.65949 86.9589 7.00522 87.425 7.22305V10.75C86.0854 10.9552 84.8238 11.5106 83.768 12.36L74.095 4.82605C74.164 4.57705 74.2 4.32105 74.204 4.06405C74.2052 3.45875 74.0268 2.8667 73.6915 2.36279C73.3561 1.85887 72.8789 1.46573 72.3201 1.23309C71.7613 1.00044 71.146 0.938757 70.5522 1.05583C69.9583 1.17289 69.4125 1.46346 68.9838 1.89077C68.5551 2.31808 68.2627 2.86293 68.1437 3.45641C68.0247 4.04989 68.0844 4.66534 68.3152 5.2249C68.546 5.78446 68.9376 6.263 69.4404 6.59998C69.9432 6.93696 70.5347 7.11725 71.14 7.11805C71.6695 7.11555 72.1892 6.97418 72.647 6.70805L82.172 14.12C81.3163 15.4127 80.8699 16.9332 80.891 18.4832C80.912 20.0333 81.3995 21.5411 82.29 22.81L79.393 25.708C79.1588 25.6332 78.9148 25.5934 78.669 25.59C78.1721 25.5904 77.6865 25.7381 77.2736 26.0144C76.8606 26.2907 76.5388 26.6832 76.3489 27.1423C76.1589 27.6014 76.1093 28.1065 76.2064 28.5938C76.3034 29.0811 76.5427 29.5287 76.894 29.88C77.2454 30.2313 77.6929 30.4706 78.1802 30.5677C78.6675 30.6647 79.1726 30.6151 79.6317 30.4251C80.0909 30.2352 80.4833 29.9134 80.7596 29.5004C81.0359 29.0875 81.1836 28.6019 81.184 28.105C81.1808 27.8592 81.141 27.6152 81.066 27.381L83.932 24.514C84.8666 25.2336 85.9534 25.7296 87.1093 25.9642C88.2652 26.1987 89.4595 26.1656 90.6006 25.8673C91.7417 25.5691 92.7995 25.0135 93.6927 24.2433C94.586 23.4731 95.2911 22.5087 95.7541 21.4239C96.217 20.3391 96.4255 19.1627 96.3636 17.9849C96.3017 16.807 95.971 15.659 95.3969 14.6287C94.8227 13.5984 94.0204 12.7132 93.0513 12.0409C92.0822 11.3686 90.9721 10.927 89.806 10.75ZM88.618 22.35C88.0883 22.3646 87.5611 22.2729 87.0675 22.0802C86.5739 21.8876 86.1239 21.598 85.7441 21.2285C85.3643 20.859 85.0624 20.4172 84.8563 19.929C84.6501 19.4409 84.5439 18.9164 84.5439 18.3865C84.5439 17.8567 84.6501 17.3322 84.8563 16.8441C85.0624 16.3559 85.3643 15.9141 85.7441 15.5446C86.1239 15.1751 86.5739 14.8855 87.0675 14.6928C87.5611 14.5002 88.0883 14.4085 88.618 14.423C89.6446 14.459 90.6171 14.8919 91.3308 15.6307C92.0445 16.3695 92.4437 17.3564 92.4442 18.3836C92.4447 19.4108 92.0466 20.3981 91.3336 21.1376C90.6207 21.8771 89.6485 22.3111 88.622 22.348" fill="white"/>
</g>
<defs>
<clipPath id="clip0_1_9043">
<rect width="106" height="31" fill="white" transform="translate(0 1)"/>
</clipPath>
</defs>
</svg>
